<svg xmlns:xlink="http://www.w3.org/1999/xlink" xmlns="http://www.w3.org/2000/svg" viewBox="0 0 60 60" fill="none" width="70"  height="70" >
<path d="M30 60C46.5685 60 60 46.5685 60 30C60 13.4315 46.5685 0 30 0C13.4315 0 0 13.4315 0 30C0 46.5685 13.4315 60 30 60Z" fill="#00AA08"/>
<path d="M29.7098 29.68C30.0964 29.68 30.4098 29.3666 30.4098 28.98C30.4098 28.5934 30.0964 28.28 29.7098 28.28C29.3232 28.28 29.0098 28.5934 29.0098 28.98C29.0098 29.3666 29.3232 29.68 29.7098 29.68Z" fill="white"/>
<path d="M29.7098 29.68C30.0964 29.68 30.4098 29.3666 30.4098 28.98C30.4098 28.5934 30.0964 28.28 29.7098 28.28C29.3232 28.28 29.0098 28.5934 29.0098 28.98C29.0098 29.3666 29.3232 29.68 29.7098 29.68Z" fill="white"/>
<path d="M47.6199 14.89C47.5264 14.7496 47.4058 14.6292 47.2652 14.5359C47.1247 14.4426 46.9669 14.3783 46.8012 14.3466C46.6355 14.315 46.4651 14.3167 46.3001 14.3516C46.135 14.3865 45.9786 14.454 45.8399 14.55C45.8399 14.55 38.2199 19.73 38.1899 19.73C38.1599 19.73 39.2999 17.62 39.2999 17.62C39.3756 17.4697 39.4209 17.3059 39.4332 17.138C39.4455 16.9702 39.4246 16.8015 39.3716 16.6418C39.3187 16.482 39.2348 16.3343 39.1246 16.207C39.0145 16.0797 38.8804 15.9754 38.7299 15.9C38.5796 15.8243 38.4158 15.779 38.2479 15.7667C38.0801 15.7544 37.9115 15.7753 37.7517 15.8283C37.5919 15.8812 37.4442 15.9652 37.3169 16.0753C37.1896 16.1854 37.0853 16.3195 37.0099 16.47L34.6399 21.35C34.5069 21.592 34.4371 21.8638 34.4371 22.14C34.4371 22.4162 34.5069 22.6879 34.6399 22.93L34.6999 23.04L36.0799 24.97L29.8399 29.26L22.8399 23.19L24.2799 21.61C24.3133 21.5691 24.3434 21.5256 24.3699 21.48C24.5778 21.1957 24.7136 20.8652 24.7659 20.5169C24.8181 20.1686 24.7852 19.8128 24.6699 19.48L22.3399 12.79C22.1866 12.3752 21.8759 12.0376 21.4753 11.8504C21.0747 11.6632 20.6164 11.6415 20.1999 11.79C19.9937 11.8648 19.8043 11.9795 19.6424 12.1276C19.4806 12.2756 19.3495 12.4541 19.2566 12.6528C19.1637 12.8516 19.1109 13.0666 19.1012 13.2858C19.0915 13.5049 19.125 13.7238 19.1999 13.93C19.1999 13.93 20.2699 16.75 20.3199 16.83C20.3699 16.91 11.1999 8.95 11.1999 8.95C10.8638 8.6626 10.4285 8.51838 9.98726 8.54829C9.54605 8.5782 9.13415 8.77986 8.83992 9.11C8.55004 9.445 8.40422 9.88094 8.43419 10.3229C8.46415 10.7649 8.66748 11.1772 8.99992 11.47L13.0799 15.03C12.916 14.8843 12.7247 14.7726 12.5172 14.7017C12.3097 14.6307 12.0901 14.6019 11.8713 14.6168C11.6525 14.6317 11.4389 14.69 11.2429 14.7885C11.0469 14.8869 10.8725 15.0234 10.7299 15.19C10.5842 15.3539 10.4725 15.5452 10.4016 15.7527C10.3306 15.9602 10.3018 16.1798 10.3167 16.3986C10.3316 16.6174 10.3899 16.831 10.4884 17.027C10.5868 17.223 10.7233 17.3974 10.8899 17.54L11.3199 17.92C11.1546 17.7752 10.9624 17.6645 10.7542 17.5942C10.546 17.5238 10.3259 17.4953 10.1067 17.5102C9.88746 17.525 9.67331 17.583 9.47652 17.6808C9.27973 17.7786 9.10417 17.9142 8.95992 18.08C8.67063 18.4133 8.52506 18.8477 8.55504 19.288C8.58502 19.7284 8.78812 20.1389 9.11992 20.43L11.2799 22.31L10.4899 21.62C10.1549 21.3301 9.71898 21.1843 9.27699 21.2143C8.835 21.2442 8.42274 21.4476 8.12993 21.78C7.84064 22.1133 7.69507 22.5477 7.72505 22.988C7.75503 23.4284 7.9581 23.8389 8.2899 24.13L10.4399 25.98C10.7735 26.2284 11.1885 26.3417 11.602 26.2972C12.0155 26.2527 12.3969 26.0537 12.6699 25.74C12.7556 25.6482 12.8264 25.5436 12.8799 25.43L16.9799 27.13C17.1381 27.2186 17.3059 27.289 17.4799 27.34C17.8745 27.4509 18.2924 27.4477 18.6853 27.3309C19.0782 27.2141 19.43 26.9884 19.6999 26.68L21.9899 24.17L29.3099 30.56L29.7499 30.05L30.1299 30.61L36.7699 26.05L37.6799 27.33C37.8616 27.5871 38.1112 27.7887 38.4008 27.9123C38.6903 28.0359 39.0085 28.0766 39.3199 28.03C39.4541 28.0053 39.585 27.965 39.7099 27.91L42.9899 26.99C43.0232 27.0782 43.0668 27.1621 43.1199 27.24C43.2979 27.5064 43.5706 27.695 43.8827 27.7675C44.1948 27.8399 44.5228 27.7908 44.7999 27.63L46.5999 26.42C46.7392 26.3256 46.8586 26.2046 46.9512 26.064C47.0437 25.9234 47.1076 25.7659 47.1391 25.6005C47.1707 25.4352 47.1694 25.2652 47.1352 25.1004C47.101 24.9356 47.0347 24.7791 46.9399 24.64C46.7475 24.3607 46.4528 24.1684 46.1197 24.1048C45.7865 24.0412 45.4417 24.1113 45.1599 24.3L44.4999 24.76L46.3099 23.52C46.4485 23.4248 46.5669 23.3032 46.6585 23.1623C46.7501 23.0213 46.813 22.8636 46.8436 22.6984C46.8743 22.5331 46.872 22.3634 46.8371 22.1989C46.8021 22.0345 46.7351 21.8785 46.6399 21.74C46.5447 21.6014 46.4232 21.483 46.2822 21.3914C46.1412 21.2999 45.9835 21.237 45.8183 21.2063C45.653 21.1757 45.4833 21.1779 45.3188 21.2128C45.1544 21.2478 44.9984 21.3148 44.8599 21.41L43.8599 22.09L45.2199 21.16C45.3603 21.0665 45.4807 20.9459 45.574 20.8053C45.6673 20.6648 45.7316 20.507 45.7633 20.3413C45.7949 20.1756 45.7933 20.0052 45.7583 19.8402C45.7234 19.6751 45.656 19.5187 45.5599 19.38C45.4647 19.2414 45.3431 19.123 45.2022 19.0314C45.0612 18.9399 44.9036 18.877 44.7383 18.8463C44.573 18.8157 44.4033 18.8179 44.2388 18.8528C44.0744 18.8878 43.9185 18.9548 43.7799 19.05L43.2199 19.43L47.2199 16.71C47.3697 16.6204 47.4995 16.5011 47.6015 16.3595C47.7035 16.2178 47.7754 16.0568 47.8129 15.8864C47.8503 15.7159 47.8525 15.5396 47.8194 15.3682C47.7862 15.1969 47.7183 15.0341 47.6199 14.89Z" fill="white"/>
<path d="M13.8299 15.57L13.1699 14.99M47.6199 14.89C47.5264 14.7496 47.4058 14.6292 47.2652 14.5359C47.1247 14.4426 46.9669 14.3783 46.8012 14.3466C46.6355 14.315 46.4651 14.3167 46.3001 14.3516C46.135 14.3865 45.9786 14.454 45.8399 14.55C45.8399 14.55 38.2199 19.73 38.1899 19.73C38.1599 19.73 39.2999 17.62 39.2999 17.62C39.3756 17.4697 39.4209 17.3059 39.4332 17.138C39.4455 16.9702 39.4246 16.8015 39.3716 16.6418C39.3187 16.482 39.2348 16.3343 39.1246 16.207C39.0145 16.0797 38.8804 15.9754 38.7299 15.9C38.5796 15.8243 38.4158 15.779 38.2479 15.7667C38.0801 15.7544 37.9115 15.7753 37.7517 15.8283C37.5919 15.8812 37.4442 15.9652 37.3169 16.0753C37.1896 16.1854 37.0853 16.3195 37.0099 16.47L34.6399 21.35C34.5069 21.592 34.4371 21.8638 34.4371 22.14C34.4371 22.4162 34.5069 22.6879 34.6399 22.93L34.6999 23.04L36.0799 24.97L29.8399 29.26L22.8399 23.19L24.2799 21.61C24.3133 21.5691 24.3434 21.5256 24.3699 21.48C24.5778 21.1957 24.7136 20.8652 24.7659 20.5169C24.8181 20.1686 24.7852 19.8128 24.6699 19.48L22.3399 12.79C22.1866 12.3752 21.8759 12.0376 21.4753 11.8504C21.0747 11.6632 20.6164 11.6415 20.1999 11.79C19.9937 11.8648 19.8043 11.9795 19.6424 12.1276C19.4806 12.2756 19.3495 12.4541 19.2566 12.6528C19.1637 12.8516 19.1109 13.0666 19.1012 13.2858C19.0915 13.5049 19.125 13.7238 19.1999 13.93C19.1999 13.93 20.2699 16.75 20.3199 16.83C20.3699 16.91 11.1999 8.95 11.1999 8.95C10.8638 8.6626 10.4285 8.51838 9.98726 8.54829C9.54605 8.5782 9.13415 8.77986 8.83992 9.11C8.55004 9.445 8.40422 9.88094 8.43419 10.3229C8.46415 10.7649 8.66748 11.1772 8.99992 11.47L13.0799 15.03C12.916 14.8843 12.7247 14.7726 12.5172 14.7017C12.3097 14.6307 12.0901 14.6019 11.8713 14.6168C11.6525 14.6317 11.4389 14.69 11.2429 14.7885C11.0469 14.8869 10.8725 15.0234 10.7299 15.19C10.5842 15.3539 10.4725 15.5452 10.4016 15.7527C10.3306 15.9602 10.3018 16.1798 10.3167 16.3986C10.3316 16.6174 10.3899 16.831 10.4884 17.027C10.5868 17.223 10.7233 17.3974 10.8899 17.54L11.3199 17.92C11.1546 17.7752 10.9624 17.6645 10.7542 17.5942C10.546 17.5238 10.3259 17.4953 10.1067 17.5102C9.88746 17.525 9.67331 17.583 9.47652 17.6808C9.27973 17.7786 9.10417 17.9142 8.95992 18.08C8.67063 18.4133 8.52506 18.8477 8.55504 19.288C8.58502 19.7284 8.78812 20.1389 9.11992 20.43L11.2799 22.31L10.4899 21.62C10.1549 21.3301 9.71898 21.1843 9.27699 21.2143C8.835 21.2442 8.42274 21.4476 8.12993 21.78C7.84064 22.1133 7.69507 22.5477 7.72505 22.988C7.75503 23.4284 7.9581 23.8389 8.2899 24.13L10.4399 25.98C10.7735 26.2284 11.1885 26.3417 11.602 26.2972C12.0155 26.2527 12.3969 26.0537 12.6699 25.74C12.7556 25.6482 12.8264 25.5436 12.8799 25.43L16.9799 27.13C17.1381 27.2186 17.3059 27.289 17.4799 27.34C17.8745 27.4509 18.2924 27.4477 18.6853 27.3309C19.0782 27.2141 19.43 26.9884 19.6999 26.68L21.9899 24.17L29.3099 30.56L29.7499 30.05L30.1299 30.61L36.7699 26.05L37.6799 27.33C37.8616 27.5871 38.1112 27.7887 38.4008 27.9123C38.6903 28.0359 39.0085 28.0766 39.3199 28.03C39.4541 28.0053 39.585 27.965 39.7099 27.91L42.9899 26.99C43.0232 27.0782 43.0668 27.1621 43.1199 27.24C43.2979 27.5064 43.5706 27.695 43.8827 27.7675C44.1948 27.8399 44.5228 27.7908 44.7999 27.63L46.5999 26.42C46.7392 26.3256 46.8586 26.2046 46.9512 26.064C47.0437 25.9234 47.1076 25.7659 47.1391 25.6005C47.1707 25.4352 47.1694 25.2652 47.1352 25.1004C47.101 24.9356 47.0347 24.7791 46.9399 24.64C46.7475 24.3607 46.4528 24.1684 46.1197 24.1048C45.7865 24.0412 45.4417 24.1113 45.1599 24.3L44.4999 24.76L46.3099 23.52C46.4485 23.4248 46.5669 23.3032 46.6585 23.1623C46.7501 23.0213 46.813 22.8636 46.8436 22.6984C46.8743 22.5331 46.872 22.3634 46.8371 22.1989C46.8021 22.0345 46.7351 21.8785 46.6399 21.74C46.5447 21.6014 46.4232 21.483 46.2822 21.3914C46.1412 21.2999 45.9835 21.237 45.8183 21.2063C45.653 21.1757 45.4833 21.1779 45.3188 21.2128C45.1544 21.2478 44.9984 21.3148 44.8599 21.41L43.8599 22.09L45.2199 21.16C45.3603 21.0665 45.4807 20.9459 45.574 20.8053C45.6673 20.6648 45.7316 20.507 45.7633 20.3413C45.7949 20.1756 45.7933 20.0052 45.7583 19.8402C45.7234 19.6751 45.656 19.5187 45.5599 19.38C45.4647 19.2414 45.3431 19.123 45.2022 19.0314C45.0612 18.9399 44.9036 18.877 44.7383 18.8463C44.573 18.8157 44.4033 18.8179 44.2388 18.8528C44.0744 18.8878 43.9185 18.9548 43.7799 19.05L43.2199 19.43L47.2199 16.71C47.3697 16.6204 47.4995 16.5011 47.6015 16.3595C47.7035 16.2178 47.7754 16.0568 47.8129 15.8864C47.8503 15.7159 47.8525 15.5396 47.8194 15.3682C47.7862 15.1969 47.7183 15.0341 47.6199 14.89Z" stroke="white" stroke-width="2.61" stroke-miterlimit="10"/>
<path d="M30 47.21C39.5049 47.21 47.21 39.5048 47.21 30C47.21 20.4952 39.5049 12.79 30 12.79C20.4952 12.79 12.79 20.4952 12.79 30C12.79 39.5048 20.4952 47.21 30 47.21Z" fill="white"/>
<path d="M30.2902 16.28H29.7202V17.51H30.2902V16.28Z" fill="#00AA08"/>
<path d="M30.2902 42.85H29.7202V44.08H30.2902V42.85Z" fill="#00AA08"/>
<path d="M23.3674 40.9719L22.749 42.0352L23.2418 42.3217L23.8601 41.2585L23.3674 40.9719Z" fill="#00AA08"/>
<path d="M18.9367 36.3346L17.8779 36.9607L18.1681 37.4513L19.2268 36.8252L18.9367 36.3346Z" fill="#00AA08"/>
<path d="M43.8789 29.8409L42.6489 29.8432L42.65 30.4132L43.88 30.4109L43.8789 29.8409Z" fill="#00AA08"/>
<path d="M17.3091 29.8919L16.0791 29.8942L16.0802 30.4642L17.3102 30.4619L17.3091 29.8919Z" fill="#00AA08"/>
<path d="M41.0563 36.3056L40.7686 36.7976L41.8303 37.4185L42.1181 36.9265L41.0563 36.3056Z" fill="#00AA08"/>
<path d="M36.7054 40.8999L36.2153 41.1909L36.8433 42.2486L37.3334 41.9576L36.7054 40.8999Z" fill="#00AA08"/>
<path d="M29.9798 31.4C30.7585 31.4 31.3898 30.7687 31.3898 29.99C31.3898 29.2113 30.7585 28.58 29.9798 28.58C29.2011 28.58 28.5698 29.2113 28.5698 29.99C28.5698 30.7687 29.2011 31.4 29.9798 31.4Z" fill="#00AA08"/>
<path d="M22.7882 22.823L21.96 23.9384L29.5194 30.5306L30.3476 29.4151L22.7882 22.823Z" fill="#00AA08"/>
<path d="M29.6201 29.53L30.3301 30.57L36.9801 26L36.2701 24.96L29.6201 29.53Z" fill="#00AA08"/>
<path d="M20.4002 11.75C20.194 11.8248 20.0045 11.9395 19.8427 12.0876C19.6808 12.2356 19.5497 12.4141 19.4569 12.6128C19.364 12.8116 19.3112 13.0266 19.3015 13.2458C19.2917 13.4649 19.3253 13.6838 19.4002 13.89C19.4002 13.89 20.4701 16.71 20.5201 16.79C20.5701 16.87 11.4002 8.91 11.4002 8.91C11.0652 8.62012 10.6292 8.4743 10.1872 8.50426C9.74524 8.53423 9.33295 8.73756 9.04014 9.07C8.89536 9.23531 8.78466 9.42758 8.71433 9.63576C8.644 9.84395 8.61542 10.064 8.63029 10.2832C8.64515 10.5025 8.70316 10.7166 8.80094 10.9134C8.89873 11.1102 9.03438 11.2857 9.20014 11.43L13.9902 15.57L10.7402 24.4L17.2301 27.09C17.3884 27.1786 17.5561 27.249 17.7301 27.3C18.1247 27.4109 18.5427 27.4077 18.9356 27.2909C19.3284 27.1741 19.6802 26.9484 19.9501 26.64L24.5201 21.64C24.5535 21.5991 24.5836 21.5556 24.6101 21.51C24.818 21.2257 24.9539 20.8952 25.0061 20.5469C25.0584 20.1986 25.0254 19.8428 24.9102 19.51V19.51L22.5902 12.82C22.5217 12.6025 22.4098 12.4011 22.261 12.2283C22.1123 12.0554 21.9299 11.9146 21.725 11.8145C21.5201 11.7144 21.297 11.6571 21.0692 11.646C20.8414 11.6349 20.6138 11.6703 20.4002 11.75Z" fill="white" stroke="#00AA08" stroke-width="1.14" stroke-miterlimit="10"/>
<path d="M9.1602 18.04C8.87091 18.3733 8.72534 18.8077 8.75533 19.248C8.78531 19.6884 8.98837 20.0989 9.32018 20.39L13.5902 24.11C13.9262 24.3311 14.3307 24.4235 14.7293 24.3702C15.128 24.3169 15.494 24.1215 15.7602 23.82C16.0221 23.5153 16.1661 23.1268 16.1661 22.725C16.1661 22.3232 16.0221 21.9347 15.7602 21.63L11.5002 17.91C11.1712 17.6201 10.7414 17.4713 10.3035 17.4956C9.86573 17.5199 9.45507 17.7155 9.1602 18.04V18.04Z" fill="white" stroke="#00AA08" stroke-width="1.14" stroke-miterlimit="10"/>
<path d="M10.9302 15.15C10.7845 15.3139 10.6729 15.5052 10.6019 15.7127C10.531 15.9202 10.5021 16.1398 10.517 16.3586C10.5319 16.5774 10.5903 16.791 10.6887 16.987C10.7871 17.183 10.9236 17.3574 11.0902 17.5L15.3502 21.22C15.684 21.4425 16.0874 21.5357 16.4849 21.4824C16.8825 21.429 17.247 21.2326 17.5102 20.93C17.776 20.6272 17.9226 20.238 17.9226 19.835C17.9226 19.432 17.776 19.0429 17.5102 18.74L13.2602 15.01C13.0981 14.8661 12.9092 14.7556 12.7043 14.6848C12.4994 14.614 12.2826 14.5842 12.0662 14.5972C11.8498 14.6102 11.6382 14.6657 11.4432 14.7606C11.2483 14.8554 11.074 14.9878 10.9302 15.15V15.15Z" fill="white" stroke="#00AA08" stroke-width="1.14" stroke-miterlimit="10"/>
<path d="M8.33012 21.74C8.04083 22.0734 7.89527 22.5077 7.92525 22.948C7.95523 23.3884 8.15833 23.7989 8.49013 24.09L10.6401 25.94C10.9737 26.1884 11.3887 26.3017 11.8022 26.2572C12.2156 26.2127 12.5971 26.0137 12.8701 25.7C13.1468 25.387 13.2945 24.9808 13.2833 24.5632C13.2722 24.1456 13.1031 23.7478 12.8101 23.45L10.6901 21.58C10.3551 21.2901 9.91918 21.1443 9.47719 21.1743C9.0352 21.2042 8.62293 21.4076 8.33012 21.74V21.74Z" fill="white" stroke="#00AA08" stroke-width="1.14" stroke-miterlimit="10"/>
<path d="M38.85 15.9C39.0005 15.9754 39.1346 16.0797 39.2447 16.207C39.3548 16.3343 39.4388 16.482 39.4917 16.6418C39.5446 16.8015 39.5656 16.9702 39.5533 17.138C39.5409 17.3059 39.4957 17.4697 39.42 17.62C39.42 17.62 38.35 19.62 38.31 19.73C38.27 19.84 45.99 14.55 45.99 14.55C46.1287 14.4539 46.2851 14.3865 46.4502 14.3516C46.6152 14.3167 46.7856 14.315 46.9513 14.3466C47.117 14.3783 47.2747 14.4426 47.4153 14.5359C47.5559 14.6292 47.6765 14.7496 47.77 14.89C47.8652 15.0285 47.9322 15.1845 47.9672 15.3489C48.0021 15.5133 48.0043 15.6831 47.9737 15.8484C47.943 16.0136 47.8801 16.1713 47.7886 16.3123C47.697 16.4532 47.5786 16.5748 47.44 16.67L43.44 19.39L45.12 26.39L39.91 27.83C39.7846 27.8836 39.6538 27.9238 39.52 27.95C39.2086 27.9966 38.8904 27.9559 38.6009 27.8323C38.3113 27.7087 38.0617 27.5071 37.88 27.25L34.88 23.01L34.82 22.9C34.6869 22.6579 34.6172 22.3862 34.6172 22.11C34.6172 21.8338 34.6869 21.562 34.82 21.32V21.32L37.2 16.44C37.3568 16.1591 37.6137 15.9476 37.9194 15.8475C38.2252 15.7474 38.5574 15.7662 38.85 15.9Z" fill="white" stroke="#00AA08" stroke-width="1.14" stroke-miterlimit="10"/>
<path d="M46.8402 21.7C46.9354 21.8385 47.0025 21.9945 47.0374 22.1589C47.0724 22.3234 47.0745 22.4931 47.0439 22.6584C47.0133 22.8236 46.9504 22.9813 46.8588 23.1223C46.7672 23.2632 46.6488 23.3848 46.5102 23.48L42.9202 25.93C42.6456 26.0704 42.329 26.1052 42.0304 26.0278C41.7318 25.9504 41.472 25.7662 41.3002 25.51C41.1248 25.2567 41.0484 24.9479 41.0852 24.6421C41.1221 24.3362 41.2697 24.0544 41.5002 23.85V23.85L45.0802 21.4C45.3549 21.2109 45.6925 21.1365 46.0212 21.1925C46.3499 21.2485 46.6437 21.4306 46.8402 21.7V21.7Z" fill="white" stroke="#00AA08" stroke-width="1.14" stroke-miterlimit="10"/>
<path d="M45.7602 19.34C45.8563 19.4787 45.9237 19.6351 45.9586 19.8002C45.9935 19.9652 45.9952 20.1356 45.9636 20.3013C45.9319 20.467 45.8676 20.6248 45.7743 20.7653C45.681 20.9059 45.5606 21.0265 45.4202 21.12L41.8402 23.57C41.5663 23.7092 41.2512 23.7444 40.9533 23.669C40.6554 23.5936 40.395 23.4127 40.2202 23.16C40.0442 22.9051 39.9673 22.5947 40.0041 22.2871C40.041 21.9796 40.1889 21.6961 40.4202 21.49L43.9902 19.01C44.2693 18.8208 44.6116 18.7494 44.943 18.8112C45.2744 18.873 45.5681 19.063 45.7602 19.34V19.34Z" fill="white" stroke="#00AA08" stroke-width="1.14" stroke-miterlimit="10"/>
<path d="M47.1401 24.6C47.2348 24.7391 47.3012 24.8956 47.3353 25.0604C47.3695 25.2252 47.3709 25.3952 47.3393 25.5605C47.3077 25.7259 47.2438 25.8833 47.1513 26.024C47.0588 26.1646 46.9394 26.2856 46.8001 26.38L44.9901 27.59C44.7129 27.7508 44.385 27.7999 44.0729 27.7275C43.7608 27.655 43.488 27.4664 43.3101 27.2C43.1289 26.9376 43.0539 26.6162 43.1003 26.3008C43.1467 25.9853 43.311 25.6991 43.5601 25.5L45.35 24.26C45.6326 24.0681 45.9798 23.9962 46.3154 24.0599C46.6509 24.1237 46.9475 24.3179 47.1401 24.6V24.6Z" fill="white" stroke="#00AA08" stroke-width="1.14" stroke-miterlimit="10"/>
</svg>